<svg xmlns="http://www.w3.org/2000/svg" width="1200" height="760" viewBox="0 0 1200 760">
  <rect width="1200" height="760" fill="#191622"/>
  <rect x="20" y="20" width="1160" height="36" rx="6" fill="#23212B" stroke="#41414D"/>
  <text x="40" y="44" fill="#E1E1E6" font-family="Menlo, monospace" font-size="15">A1 — Soft Cards</text>
  <rect x="20" y="66" width="1160" height="32" rx="6" fill="#2A2734" stroke="#41414D"/>
  <rect x="34" y="74" width="130" height="16" rx="8" fill="#78D1E1"/>
  <rect x="176" y="74" width="110" height="16" rx="8" fill="#41414D"/>
  <rect x="298" y="74" width="120" height="16" rx="8" fill="#41414D"/>
  <rect x="20" y="108" width="1160" height="590" rx="8" fill="#191622" stroke="#41414D"/>
  <rect x="36" y="124" width="760" height="470" rx="6" fill="#23212B" stroke="#41414D"/>
  <rect x="806" y="124" width="358" height="470" rx="6" fill="#2A2734" stroke="#41414D"/>
  <rect x="52" y="146" width="726" height="86" rx="8" fill="#2A2734"/>
  <rect x="52" y="242" width="726" height="100" rx="8" fill="#262330"/>
  <rect x="52" y="352" width="726" height="86" rx="8" fill="#2A2734"/>
  <rect x="52" y="448" width="726" height="120" rx="8" fill="#262330"/>
  <rect x="52" y="146" width="3" height="86" fill="#78D1E1"/>
  <rect x="52" y="242" width="3" height="100" fill="#483C67"/>
  <rect x="52" y="352" width="3" height="86" fill="#78D1E1"/>
  <rect x="52" y="448" width="3" height="120" fill="#483C67"/>
  <rect x="36" y="606" width="1128" height="76" rx="6" fill="#2A2734" stroke="#41414D"/>
  <rect x="52" y="628" width="740" height="32" rx="4" fill="#191622" stroke="#41414D"/>
  <rect x="806" y="628" width="84" height="28" rx="4" fill="#23212B" stroke="#41414D"/>
  <rect x="898" y="628" width="84" height="28" rx="4" fill="#23212B" stroke="#41414D"/>
  <rect x="990" y="628" width="84" height="28" rx="4" fill="#23212B" stroke="#41414D"/>
  <text x="52" y="725" fill="#A8A4B8" font-family="Menlo, monospace" font-size="13">Soft contrast cards + thin role rule + muted framing</text>
</svg>
