<svg xmlns="http://www.w3.org/2000/svg" width="1280" height="800" viewBox="0 0 1280 800">
  <rect width="1280" height="800" fill="#191622"/>
  <rect x="16" y="16" width="1248" height="40" rx="12" fill="#23212B"/>
  <text x="34" y="42" fill="#E1E1E6" font-family="Menlo, monospace" font-size="15">R3 — Ops Rounded</text>
  <rect x="16" y="66" width="1026" height="690" rx="14" fill="#1d1a27"/>
  <rect x="1052" y="66" width="212" height="690" rx="14" fill="#2A2734"/>
  <rect x="32" y="84" width="994" height="28" rx="10" fill="#2A2734"/>
  <rect x="44" y="90" width="80" height="16" rx="8" fill="#2f2b3d" stroke="#78D1E1"/>
  <rect x="132" y="90" width="84" height="16" rx="8" fill="#23212B"/>
  <rect x="224" y="90" width="84" height="16" rx="8" fill="#23212B"/>
  <rect x="40" y="126" width="690" height="540" rx="12" fill="#23212B"/>
  <rect x="740" y="126" width="280" height="540" rx="12" fill="#262330"/>
  <rect x="56" y="160" width="636" height="90" rx="14" fill="#2E2A3A"/>
  <rect x="88" y="266" width="636" height="90" rx="14" fill="#252231"/>
  <rect x="56" y="372" width="636" height="90" rx="14" fill="#2E2A3A"/>
  <rect x="88" y="478" width="636" height="90" rx="14" fill="#252231"/>
  <rect x="754" y="156" width="252" height="34" rx="10" fill="#23212B"/>
  <rect x="754" y="196" width="252" height="34" rx="10" fill="#23212B"/>
  <rect x="754" y="236" width="252" height="34" rx="10" fill="#23212B"/>
  <rect x="754" y="276" width="252" height="34" rx="10" fill="#23212B"/>
  <rect x="760" y="158" width="2" height="30" fill="#78D1E1"/>
  <rect x="760" y="198" width="2" height="30" fill="#E89E64"/>
  <rect x="760" y="238" width="2" height="30" fill="#67E480"/>
  <rect x="760" y="278" width="2" height="30" fill="#483C67"/>
  <rect x="40" y="684" width="980" height="58" rx="12" fill="#2A2734"/>
  <rect x="56" y="700" width="660" height="28" rx="10" fill="#191622"/>
  <rect x="730" y="700" width="90" height="28" rx="10" fill="#23212B"/>
  <rect x="828" y="700" width="90" height="28" rx="10" fill="#23212B"/>
  <rect x="926" y="700" width="90" height="28" rx="10" fill="#23212B"/>
  <rect x="1068" y="84" width="180" height="44" rx="12" fill="#23212B"/>
  <rect x="1068" y="136" width="180" height="72" rx="12" fill="#23212B"/>
  <text x="34" y="784" fill="#A8A4B8" font-family="Menlo, monospace" font-size="12">Rounded bubbles + stronger ops context without line overload</text>
</svg>
